<mxfile>
    <diagram id="_Sh-WiEGn78lvfRqOLMb" name="Page-1">
        <mxGraphModel dx="1320" dy="1969" grid="1" gridSize="10" guides="1" tooltips="1" connect="1" arrows="1" fold="1" page="1" pageScale="1" pageWidth="827" pageHeight="1169" math="0" shadow="0">
            <root>
                <mxCell id="0"/>
                <mxCell id="1" parent="0"/>
                <mxCell id="2" value="" style="rounded=1;whiteSpace=wrap;html=1;shadow=0;sketch=0;glass=0;arcSize=2;fillColor=#0050ef;strokeColor=#001DBC;fontColor=#ffffff;" parent="1" vertex="1">
                    <mxGeometry x="40" y="80" width="1040" height="480" as="geometry"/>
                </mxCell>
                <mxCell id="3" value="" style="rounded=0;whiteSpace=wrap;html=1;shadow=0;glass=0;sketch=0;fillColor=#60a917;strokeColor=#2D7600;fontColor=#ffffff;" parent="1" vertex="1">
                    <mxGeometry x="50" y="90" width="1020" height="50" as="geometry"/>
                </mxCell>
                <mxCell id="16" value="Выбрать город" style="html=1;shadow=0;dashed=0;shape=mxgraph.bootstrap.rrect;rSize=5;strokeColor=#505050;strokeWidth=1;fillColor=#ffffff;fontColor=#777777;whiteSpace=wrap;align=left;verticalAlign=middle;fontStyle=0;fontSize=14;spacingRight=0;spacing=17;rounded=1;glass=0;sketch=0;" parent="1" vertex="1">
                    <mxGeometry x="60" y="100" width="300" height="30" as="geometry"/>
                </mxCell>
                <mxCell id="17" value="" style="shape=triangle;direction=south;fillColor=#495057;strokeColor=none;perimeter=none;" parent="16" vertex="1">
                    <mxGeometry x="1" y="0.5" width="10" height="5" relative="1" as="geometry">
                        <mxPoint x="-17" y="-2.5" as="offset"/>
                    </mxGeometry>
                </mxCell>
                <mxCell id="20" value="Локация" style="html=1;shadow=0;dashed=0;shape=mxgraph.bootstrap.rrect;rSize=5;strokeColor=none;strokeWidth=1;fillColor=#F8F9FA;fontColor=#000000;whiteSpace=wrap;align=center;verticalAlign=middle;spacingLeft=0;fontStyle=0;fontSize=16;spacing=5;rounded=1;glass=0;sketch=0;" parent="1" vertex="1">
                    <mxGeometry x="380" y="100" width="90" height="30" as="geometry"/>
                </mxCell>
                <mxCell id="63" style="edgeStyle=orthogonalEdgeStyle;rounded=0;orthogonalLoop=1;jettySize=auto;html=1;" edge="1" parent="1" source="23" target="16">
                    <mxGeometry relative="1" as="geometry"/>
                </mxCell>
                <mxCell id="64" value="Заблокировать поле&lt;br&gt;Установить текущее местоположение" style="edgeLabel;html=1;align=center;verticalAlign=middle;resizable=0;points=[];" vertex="1" connectable="0" parent="63">
                    <mxGeometry x="0.166" y="1" relative="1" as="geometry">
                        <mxPoint x="-33" y="-26" as="offset"/>
                    </mxGeometry>
                </mxCell>
                <mxCell id="23" value="Локация" style="html=1;shadow=0;dashed=0;shape=mxgraph.bootstrap.rrect;rSize=5;strokeColor=none;strokeWidth=1;fillColor=#0085FC;fontColor=#FFFFFF;whiteSpace=wrap;align=center;verticalAlign=middle;spacingLeft=0;fontStyle=0;fontSize=16;spacing=5;rounded=1;glass=0;sketch=0;" parent="1" vertex="1">
                    <mxGeometry x="380" y="20" width="90" height="30" as="geometry"/>
                </mxCell>
                <mxCell id="24" value="" style="endArrow=classic;html=1;" parent="1" source="20" target="23" edge="1">
                    <mxGeometry width="50" height="50" relative="1" as="geometry">
                        <mxPoint x="400" y="60" as="sourcePoint"/>
                        <mxPoint x="450" y="10" as="targetPoint"/>
                    </mxGeometry>
                </mxCell>
                <mxCell id="25" value="Активно" style="edgeLabel;html=1;align=center;verticalAlign=middle;resizable=0;points=[];" parent="24" vertex="1" connectable="0">
                    <mxGeometry x="0.3091" y="-3" relative="1" as="geometry">
                        <mxPoint as="offset"/>
                    </mxGeometry>
                </mxCell>
                <mxCell id="28" value="" style="rounded=0;whiteSpace=wrap;html=1;fillColor=#a20025;strokeColor=#6F0000;fontColor=#ffffff;" vertex="1" parent="1">
                    <mxGeometry x="50" y="150" width="1020" height="240" as="geometry"/>
                </mxCell>
                <mxCell id="29" value="Картинка&lt;br&gt;погоды" style="rounded=0;whiteSpace=wrap;html=1;" vertex="1" parent="1">
                    <mxGeometry x="60" y="160" width="130" height="130" as="geometry"/>
                </mxCell>
                <mxCell id="30" value="Температура" style="rounded=0;whiteSpace=wrap;html=1;" vertex="1" parent="1">
                    <mxGeometry x="200" y="160" width="130" height="130" as="geometry"/>
                </mxCell>
                <mxCell id="31" value="" style="rounded=0;whiteSpace=wrap;html=1;" vertex="1" parent="1">
                    <mxGeometry x="60" y="300" width="1000" height="80" as="geometry"/>
                </mxCell>
                <mxCell id="32" value="Ощущается" style="rounded=0;whiteSpace=wrap;html=1;" vertex="1" parent="1">
                    <mxGeometry x="70" y="310" width="180" height="60" as="geometry"/>
                </mxCell>
                <mxCell id="33" value="Ветер" style="rounded=0;whiteSpace=wrap;html=1;" vertex="1" parent="1">
                    <mxGeometry x="270" y="310" width="180" height="60" as="geometry"/>
                </mxCell>
                <mxCell id="34" value="Влажность" style="rounded=0;whiteSpace=wrap;html=1;" vertex="1" parent="1">
                    <mxGeometry x="670" y="310" width="180" height="60" as="geometry"/>
                </mxCell>
                <mxCell id="35" value="Видимость" style="rounded=0;whiteSpace=wrap;html=1;" vertex="1" parent="1">
                    <mxGeometry x="470" y="310" width="180" height="60" as="geometry"/>
                </mxCell>
                <mxCell id="37" value="Давление" style="rounded=0;whiteSpace=wrap;html=1;" vertex="1" parent="1">
                    <mxGeometry x="870" y="310" width="180" height="60" as="geometry"/>
                </mxCell>
                <mxCell id="46" value="weatherImg:&lt;br&gt;temp&lt;br&gt;feelsLike&lt;br&gt;wind&lt;br&gt;visibility&lt;br&gt;humidity&lt;br&gt;pressure&lt;br&gt;Date" style="rounded=1;whiteSpace=wrap;html=1;align=left;spacingLeft=10;" vertex="1" parent="1">
                    <mxGeometry x="685" y="160" width="150" height="130" as="geometry"/>
                </mxCell>
                <mxCell id="47" value="" style="rounded=0;whiteSpace=wrap;html=1;fillColor=#1ba1e2;strokeColor=#006EAF;fontColor=#ffffff;" vertex="1" parent="1">
                    <mxGeometry x="50" y="400" width="1020" height="150" as="geometry"/>
                </mxCell>
                <mxCell id="60" value="onClick - установить active класс" style="edgeStyle=orthogonalEdgeStyle;rounded=0;orthogonalLoop=1;jettySize=auto;html=1;exitX=0.5;exitY=1;exitDx=0;exitDy=0;entryX=0.5;entryY=0;entryDx=0;entryDy=0;" edge="1" parent="1" source="48" target="59">
                    <mxGeometry relative="1" as="geometry"/>
                </mxCell>
                <mxCell id="48" value="" style="rounded=1;whiteSpace=wrap;html=1;arcSize=9;" vertex="1" parent="1">
                    <mxGeometry x="60" y="410" width="120" height="130" as="geometry"/>
                </mxCell>
                <mxCell id="49" value="" style="rounded=1;whiteSpace=wrap;html=1;arcSize=9;" vertex="1" parent="1">
                    <mxGeometry x="350" y="410" width="120" height="130" as="geometry"/>
                </mxCell>
                <mxCell id="50" value="" style="rounded=1;whiteSpace=wrap;html=1;arcSize=9;" vertex="1" parent="1">
                    <mxGeometry x="205" y="410" width="120" height="130" as="geometry"/>
                </mxCell>
                <mxCell id="51" value="" style="rounded=1;whiteSpace=wrap;html=1;arcSize=9;" vertex="1" parent="1">
                    <mxGeometry x="650" y="410" width="120" height="130" as="geometry"/>
                </mxCell>
                <mxCell id="52" value="" style="rounded=1;whiteSpace=wrap;html=1;arcSize=9;" vertex="1" parent="1">
                    <mxGeometry x="500" y="410" width="120" height="130" as="geometry"/>
                </mxCell>
                <mxCell id="53" value="" style="rounded=1;whiteSpace=wrap;html=1;arcSize=9;" vertex="1" parent="1">
                    <mxGeometry x="940" y="410" width="120" height="130" as="geometry"/>
                </mxCell>
                <mxCell id="54" value="" style="rounded=1;whiteSpace=wrap;html=1;arcSize=9;" vertex="1" parent="1">
                    <mxGeometry x="800" y="410" width="120" height="130" as="geometry"/>
                </mxCell>
                <mxCell id="55" value="Дата" style="rounded=0;whiteSpace=wrap;html=1;" vertex="1" parent="1">
                    <mxGeometry x="70" y="420" width="100" height="20" as="geometry"/>
                </mxCell>
                <mxCell id="56" value="Картинка&lt;br&gt;погоды" style="rounded=0;whiteSpace=wrap;html=1;" vertex="1" parent="1">
                    <mxGeometry x="70" y="450" width="50" height="50" as="geometry"/>
                </mxCell>
                <mxCell id="57" value="Температура" style="rounded=0;whiteSpace=wrap;html=1;" vertex="1" parent="1">
                    <mxGeometry x="70" y="510" width="100" height="20" as="geometry"/>
                </mxCell>
                <mxCell id="58" value="Выбранная дата" style="rounded=0;whiteSpace=wrap;html=1;align=center;" vertex="1" parent="1">
                    <mxGeometry x="340" y="160" width="130" height="130" as="geometry"/>
                </mxCell>
                <mxCell id="61" style="edgeStyle=orthogonalEdgeStyle;rounded=0;orthogonalLoop=1;jettySize=auto;html=1;entryX=1;entryY=0.5;entryDx=0;entryDy=0;" edge="1" parent="1" source="59" target="46">
                    <mxGeometry relative="1" as="geometry">
                        <Array as="points">
                            <mxPoint x="1120" y="640"/>
                            <mxPoint x="1120" y="225"/>
                        </Array>
                    </mxGeometry>
                </mxCell>
                <mxCell id="62" value="onClick: меняет состояние - берёт данные из выбранной погодной карточки&lt;br&gt;устанавливает состояние компонента" style="edgeLabel;html=1;align=center;verticalAlign=middle;resizable=0;points=[];" vertex="1" connectable="0" parent="61">
                    <mxGeometry x="-0.4727" y="2" relative="1" as="geometry">
                        <mxPoint x="-222" y="22" as="offset"/>
                    </mxGeometry>
                </mxCell>
                <mxCell id="59" value="" style="rounded=1;whiteSpace=wrap;html=1;arcSize=9;fillColor=#CCCCCC;" vertex="1" parent="1">
                    <mxGeometry x="60" y="580" width="120" height="130" as="geometry"/>
                </mxCell>
            </root>
        </mxGraphModel>
    </diagram>
</mxfile>